<svg xmlns="http://www.w3.org/2000/svg" version="1.1" xmlns:xlink="http://www.w3.org/1999/xlink" width="512" height="512" x="0" y="0" viewBox="0 0 64 64" style="enable-background:new 0 0 512 512" xml:space="preserve" class=""><g><g fill="#afb4c8"><path d="M54 12h5v3h-5zM14 12h5v3h-5zM5 12h5v3H5z" fill="#afb4c8" opacity="1" data-original="#afb4c8"></path></g><path fill="#ffe45c" d="M5 47h8v4H5z" opacity="1" data-original="#ffe45c"></path><path fill="#ffa426" d="M5 47h3v4H5z" opacity="1" data-original="#ffa426"></path><path fill="#b5efff" d="M28 12h8v4h-8z" opacity="1" data-original="#b5efff"></path><path fill="#19cffc" d="M28 12h3v4h-3z" opacity="1" data-original="#19cffc"></path><path fill="#afb4c8" d="M16 24h.01a.97.97 0 0 0-.01.17V35a16 16 0 0 0 32 0V24.17a.97.97 0 0 0-.01-.17H63v27a4 4 0 0 1-4 4H5a4 4 0 0 1-4-4V24zm-3 27v-4H5v4z" opacity="1" data-original="#afb4c8"></path><path fill="#dce1eb" d="m21.64 15-3.47 3.69A7.948 7.948 0 0 0 16.01 24H1v-5a4 4 0 0 1 4-4zM63 19v5H47.99a7.948 7.948 0 0 0-2.16-5.31L42.36 15H59a4 4 0 0 1 4 4z" opacity="1" data-original="#dce1eb" class=""></path><path fill="#cdd2e1" d="M45.36 15h-3l3.47 3.69A7.948 7.948 0 0 1 47.99 24h3a7.948 7.948 0 0 0-2.16-5.31z" opacity="1" data-original="#cdd2e1" class=""></path><path fill="#bec3d2" d="M48 35a16 16 0 0 0-32 0V24.17a.97.97 0 0 1 .01-.17 7.948 7.948 0 0 1 2.16-5.31L21.64 15l4.08-4.33A2.006 2.006 0 0 1 27.69 9h8.62a2.006 2.006 0 0 1 1.97 1.67L42.36 15l3.47 3.69A7.948 7.948 0 0 1 47.99 24a.97.97 0 0 1 .01.17zM28 16h8v-4h-8z" opacity="1" data-original="#bec3d2"></path><path fill="#cdd2e1" d="M19 24.17a.97.97 0 0 1 .01-.17 7.948 7.948 0 0 1 2.16-5.31L24.64 15l4.08-4.33A2.006 2.006 0 0 1 30.69 9h-3a2.006 2.006 0 0 0-1.97 1.67L21.64 15l-3.47 3.69A7.948 7.948 0 0 0 16.01 24a.97.97 0 0 0-.01.17V35a15.91 15.91 0 0 1 3-9.306z" opacity="1" data-original="#cdd2e1" class=""></path><path fill="#7e8596" d="M32 19a16 16 0 1 1-16 16 16 16 0 0 1 16-16zm0 28a12 12 0 1 0-12-12 12 12 0 0 0 12 12z" opacity="1" data-original="#7e8596"></path><circle cx="32" cy="35" r="12" fill="#b5efff" opacity="1" data-original="#b5efff"></circle><path fill="#19cffc" d="M23 35a11.99 11.99 0 0 1 10.5-11.9 12 12 0 1 0 0 23.792A11.99 11.99 0 0 1 23 35z" opacity="1" data-original="#19cffc"></path><path fill="#9196aa" d="M4 51V24H1v27a4 4 0 0 0 4 4h3a4 4 0 0 1-4-4zM33.5 50.924c.494.046.994.076 1.5.076a16 16 0 0 0 16-16V24.17a.97.97 0 0 0-.01-.17h-3a.97.97 0 0 1 .01.17V35a15.992 15.992 0 0 1-14.5 15.924z" opacity="1" data-original="#9196aa"></path><path fill="#cdd2e1" d="M8 15H5a4 4 0 0 0-4 4v5h3v-5a4 4 0 0 1 4-4z" opacity="1" data-original="#cdd2e1" class=""></path><path fill="#e3fbff" d="M41 35h-2a7.008 7.008 0 0 0-7-7v-2a9.011 9.011 0 0 1 9 9zM32 44a9.011 9.011 0 0 1-9-9h2a7.008 7.008 0 0 0 7 7zM39 37h2v2h-2z" opacity="1" data-original="#e3fbff"></path><path d="M60 14.1V12a1 1 0 0 0-1-1h-5a1 1 0 0 0-1 1v2H42.788l-3.594-3.818A2.986 2.986 0 0 0 36.31 8h-8.62a2.986 2.986 0 0 0-2.884 2.182L21.212 14H20v-2a1 1 0 0 0-1-1h-5a1 1 0 0 0-1 1v2h-2v-2a1 1 0 0 0-1-1H5a1 1 0 0 0-1 1v2.1A5.009 5.009 0 0 0 0 19v32a5.006 5.006 0 0 0 5 5h54a5.006 5.006 0 0 0 5-5V19a5.009 5.009 0 0 0-4-4.9zM55 13h3v1h-3zm4 3a3 3 0 0 1 3 3v4H48.916a8.945 8.945 0 0 0-2.357-5l-1.888-2zm-32.552-4.645a1 1 0 0 0 .259-.521A1 1 0 0 1 27.69 10h8.62a1 1 0 0 1 .983.834 1 1 0 0 0 .259.521l7.548 8.019a6.933 6.933 0 0 1 1.889 4.641 1.142 1.142 0 0 0 .01.155v2.847a16.985 16.985 0 0 0-30 0v-2.856a1.2 1.2 0 0 0 .013-.146 6.933 6.933 0 0 1 1.888-4.64zM47 35a15 15 0 1 1-15-15 15.017 15.017 0 0 1 15 15zM15 13h3v1h-3zm-6 0v1H6v-1zm-4 3h14.329l-1.889 2.006A8.947 8.947 0 0 0 15.084 23H2v-4a3 3 0 0 1 3-3zm54 38H5a3 3 0 0 1-3-3V25h13v10a17 17 0 0 0 34 0V25h13v26a3 3 0 0 1-3 3z" fill="#000000" opacity="1" data-original="#000000" class=""></path><path d="M32 22a13 13 0 1 0 13 13 13.015 13.015 0 0 0-13-13zm0 24a11 11 0 1 1 11-11 11.013 11.013 0 0 1-11 11z" fill="#000000" opacity="1" data-original="#000000" class=""></path><path d="M32 26v2a7.008 7.008 0 0 1 7 7h2a9.011 9.011 0 0 0-9-9zM25 35h-2a9.011 9.011 0 0 0 9 9v-2a7.008 7.008 0 0 1-7-7zM28 17h8a1 1 0 0 0 1-1v-4a1 1 0 0 0-1-1h-8a1 1 0 0 0-1 1v4a1 1 0 0 0 1 1zm1-4h6v2h-6zM39 37h2v2h-2zM13 46H5a1 1 0 0 0-1 1v4a1 1 0 0 0 1 1h8a1 1 0 0 0 1-1v-4a1 1 0 0 0-1-1zm-1 4H6v-2h6z" fill="#000000" opacity="1" data-original="#000000" class=""></path></g></svg>