<svg xmlns="http://www.w3.org/2000/svg" xmlns:xlink="http://www.w3.org/1999/xlink" xmlns:svgjs="http://svgjs.com/svgjs" version="1.1" width="512" height="512" x="0" y="0" viewBox="0 0 64 64" style="enable-background:new 0 0 512 512" xml:space="preserve"><g><g fill="#ffc048" data-name="Layer 82"><path d="M32 3.4A28.59 28.59 0 0 0 3.4 32 28.59 28.59 0 0 0 32 60.6 28.59 28.59 0 0 0 60.6 32 28.59 28.59 0 0 0 32 3.4zm0 52.68A24.08 24.08 0 1 1 56.08 32 24.1 24.1 0 0 1 32 56.08z" fill="#ffc048" data-original="#ffc048"/><path d="m42.43 28.88-15.69-9.06a3.62 3.62 0 0 0-5.4 3.12v18.12a3.62 3.62 0 0 0 5.4 3.12l15.69-9.06a3.6 3.6 0 0 0 0-6.24z" fill="#ffc048" data-original="#ffc048"/></g></g></svg>