<svg xmlns="http://www.w3.org/2000/svg" xmlns:xlink="http://www.w3.org/1999/xlink" xmlns:svgjs="http://svgjs.com/svgjs" version="1.1" width="512" height="512" x="0" y="0" viewBox="0 0 32 32" style="enable-background:new 0 0 512 512" xml:space="preserve" class=""><g><path d="M30 14v9.53a3 3 0 0 1-1.5 2.6 3 3 0 0 1-1.5.41 3.06 3.06 0 0 1-1.51-.41L20 22.94v.59a3 3 0 0 1-4.5 2.6l-7-4.06a1 1 0 0 1-.37-1.36 1 1 0 0 1 1.37-.37l7 4.05a1 1 0 0 0 1 0 1 1 0 0 0 .5-.86v-1.74l-5.5-3.19a3 3 0 0 1 0-5.2l13-7.53a3 3 0 0 1 3 0 3 3 0 0 1 1.5 2.6 1 1 0 1 1-2 0 1 1 0 0 0-1.5-.87l-13 7.53a1 1 0 0 0 0 1.74l13 7.53a1 1 0 0 0 1.5-.87V14a1 1 0 0 1 2 0zM6.51 18.61l-3-1.75a1 1 0 0 1 0-1.72l13-7.53a1 1 0 0 0-1-1.74L2.5 13.4a3 3 0 0 0 0 5.2l3 1.74a1 1 0 0 0 1-1.73z" fill="#f5ba26" data-original="#000000" opacity="1"/></g></svg>